<svg xmlns="http://www.w3.org/2000/svg" xmlns:xlink="http://www.w3.org/1999/xlink" width="500" zoomAndPan="magnify" viewBox="0 0 375 374.999991" height="500" preserveAspectRatio="xMidYMid meet" version="1.0"><defs><g/><clipPath id="b2e5f5e485"><path d="M 78.78125 87.945312 L 277.53125 87.945312 L 277.53125 286.695312 L 78.78125 286.695312 Z M 78.78125 87.945312 " clip-rule="nonzero"/></clipPath><clipPath id="2dcbf6e3e3"><path d="M 191.632812 165.402344 L 375 165.402344 L 375 251.46875 L 191.632812 251.46875 Z M 191.632812 165.402344 " clip-rule="nonzero"/></clipPath></defs><g clip-path="url(#b2e5f5e485)"><path fill="#b6c361" d="M 78.78125 187.320312 C 78.78125 132.539062 123.378906 87.945312 178.15625 87.945312 C 232.933594 87.945312 277.53125 132.539062 277.53125 187.320312 C 277.53125 242.097656 232.933594 286.695312 178.15625 286.695312 C 123.378906 286.695312 78.78125 242.097656 78.78125 187.320312 Z M 276.0625 187.320312 C 276.0625 133.324219 232.152344 89.414062 178.15625 89.414062 C 124.160156 89.414062 80.25 133.324219 80.25 187.320312 C 80.25 241.316406 124.160156 285.226562 178.15625 285.226562 C 232.152344 285.226562 276.0625 241.316406 276.0625 187.320312 Z M 276.0625 187.320312 " fill-opacity="1" fill-rule="nonzero"/></g><g clip-path="url(#2dcbf6e3e3)"><path fill="#ffffff" d="M 191.632812 165.402344 L 397.296875 165.402344 L 397.296875 251.535156 L 191.632812 251.535156 Z M 191.632812 165.402344 " fill-opacity="1" fill-rule="nonzero"/></g><g fill="#2b2b2b" fill-opacity="1"><g transform="translate(50.250001, 207.144596)"><g><path d="M 99.304688 -68.425781 C 99.066406 -73.03125 97.636719 -75.492188 95.097656 -75.730469 C 87.160156 -76.679688 72.792969 -49.691406 59.851562 -10.636719 C 65.328125 -49.453125 61.917969 -55.964844 58.027344 -56.835938 C 56.121094 -57.234375 50.484375 -58.503906 35.164062 -23.257812 C 28.179688 -7.304688 20.957031 12.382812 14.921875 31.59375 C 20.242188 5.636719 30.800781 -40.484375 34.292969 -55.011719 C 36.515625 -64.378906 36.039062 -69.933594 32.941406 -71.917969 C 31.277344 -72.949219 28.179688 -73.347656 22.703125 -69.140625 C 17.144531 -64.851562 11.035156 -57.152344 6.667969 -49.136719 C 3.730469 -43.660156 -0.792969 -33.339844 1.824219 -25.558594 C 4.285156 -18.257812 11.90625 -16.589844 17.859375 -16.511719 C 18.734375 -16.511719 19.367188 -17.144531 19.367188 -18.019531 C 19.449219 -18.890625 18.734375 -19.527344 17.859375 -19.527344 C 10.636719 -19.6875 6.269531 -21.988281 4.683594 -26.59375 C 1.109375 -37.386719 14.128906 -58.582031 24.609375 -66.757812 C 27.625 -69.0625 30.164062 -70.09375 31.355469 -69.296875 C 31.988281 -68.902344 33.894531 -66.679688 31.277344 -55.726562 C 29.847656 -49.613281 23.734375 -23.417969 18.097656 2.144531 C 15.082031 16.035156 12.699219 27.148438 11.113281 35.085938 C 10.238281 39.691406 9.605469 43.261719 9.207031 45.722656 C 8.652344 49.453125 8.492188 51.042969 10.082031 51.519531 C 10.238281 51.597656 10.398438 51.675781 10.636719 51.675781 C 11.90625 51.675781 12.542969 49.929688 13.257812 48.023438 C 13.257812 47.945312 13.257812 47.945312 13.335938 47.867188 C 19.925781 24.210938 29.132812 -1.90625 37.945312 -22.066406 C 52.074219 -54.613281 57.152344 -53.898438 57.390625 -53.820312 C 57.472656 -53.820312 59.933594 -53.105469 59.613281 -39.609375 C 59.296875 -28.734375 57.3125 -12.144531 53.660156 9.527344 C 53.503906 10.320312 54.058594 11.113281 54.851562 11.273438 C 55.644531 11.429688 56.4375 11.035156 56.597656 10.238281 C 65.886719 -21.75 74.378906 -41.59375 79.9375 -52.628906 C 87.953125 -68.585938 93.035156 -72.710938 94.699219 -72.710938 C 94.699219 -72.710938 94.78125 -72.710938 94.78125 -72.710938 C 95.414062 -72.632812 96.128906 -71.285156 96.289062 -68.265625 C 96.921875 -58.265625 92.160156 -32.070312 87.953125 -8.96875 C 80.730469 30.640625 80.015625 37.785156 83.109375 38.894531 C 85.015625 39.609375 86.523438 37.386719 87.792969 35.164062 C 88.191406 34.449219 87.953125 33.5 87.238281 33.101562 C 86.523438 32.703125 85.570312 32.941406 85.09375 33.65625 C 84.855469 34.132812 84.617188 34.53125 84.382812 34.847656 C 84.222656 28.734375 87.953125 8.335938 90.96875 -8.414062 C 95.414062 -32.863281 100.019531 -58.105469 99.304688 -68.425781 Z M 99.304688 -68.425781 "/></g></g></g><g fill="#2b2b2b" fill-opacity="1"><g transform="translate(150.813097, 207.144596)"><g><path d="M 26.832031 -17.703125 C 26.117188 -18.179688 25.164062 -18.019531 24.6875 -17.304688 C 18.734375 -8.96875 13.890625 -3.730469 9.128906 -0.316406 C 6.746094 1.347656 4.445312 1.667969 2.9375 0.554688 C 1.984375 -0.160156 -0.953125 -3.332031 2.460938 -14.445312 C 10.160156 -20.796875 14.367188 -26.832031 13.257812 -30.003906 C 12.859375 -30.957031 11.90625 -31.59375 10.875 -31.59375 C 7.699219 -31.515625 2.859375 -26.035156 -0.316406 -15.796875 C -4.207031 -3.175781 -1.03125 1.429688 1.191406 3.015625 C 2.300781 3.890625 3.570312 4.285156 5 4.285156 C 6.828125 4.285156 8.890625 3.570312 10.875 2.144531 C 15.957031 -1.507812 20.957031 -6.90625 27.148438 -15.558594 C 27.625 -16.273438 27.464844 -17.226562 26.832031 -17.703125 Z M 10.238281 -28.257812 C 9.921875 -26.988281 8.574219 -24.449219 4.84375 -20.640625 C 6.90625 -25.242188 9.128906 -27.464844 10.238281 -28.257812 Z M 10.238281 -28.257812 "/></g></g></g><g fill="#2b2b2b" fill-opacity="1"><g transform="translate(173.910065, 207.144596)"><g><path d="M 34.847656 -17.941406 C 34.054688 -18.335938 33.101562 -18.019531 32.785156 -17.226562 C 23.65625 1.984375 15.003906 11.828125 13.097656 11.511719 C 12.9375 11.429688 10.160156 8.730469 19.128906 -18.8125 C 19.367188 -19.527344 19.925781 -21.195312 18.65625 -22.066406 C 17.464844 -23.019531 16.113281 -22.148438 13.890625 -20.640625 C 11.511719 -19.128906 8.253906 -16.988281 5.714844 -17.304688 C 13.8125 -31.277344 13.019531 -34.371094 11.191406 -35.5625 C 8.335938 -37.230469 4.207031 -32.386719 2.300781 -29.609375 C -1.585938 -23.574219 -1.507812 -18.097656 2.621094 -15.320312 C 6.828125 -12.382812 12.304688 -15.957031 15.558594 -18.097656 C 15.636719 -18.179688 15.636719 -18.179688 15.71875 -18.257812 C 12.621094 -8.492188 10.636719 -0.792969 9.921875 4.523438 C 9.050781 10.398438 9.683594 13.496094 11.90625 14.367188 C 12.304688 14.445312 12.621094 14.527344 13.019531 14.527344 C 19.367188 14.527344 30.402344 -5 35.5625 -15.875 C 35.878906 -16.667969 35.5625 -17.621094 34.847656 -17.941406 Z M 2.777344 -23.417969 C 3.890625 -27.703125 7.621094 -31.671875 9.289062 -32.625 C 9.128906 -31.355469 8.253906 -27.78125 3.175781 -18.972656 C 2.621094 -19.84375 2.222656 -21.195312 2.777344 -23.417969 Z M 2.777344 -23.417969 "/></g></g></g><g fill="#2b2b2b" fill-opacity="1"><g transform="translate(205.579104, 207.144596)"><g><path d="M 33.179688 -17.621094 C 32.464844 -17.941406 31.515625 -17.621094 31.195312 -16.90625 C 25.164062 -4.605469 20.640625 -0.714844 18.496094 -1.109375 C 17.621094 -1.269531 14.765625 -2.9375 14.050781 -16.828125 C 14.050781 -17.464844 13.574219 -18.019531 13.019531 -18.179688 C 12.382812 -18.335938 11.667969 -18.179688 11.351562 -17.621094 C 10.875 -17.066406 10.398438 -16.433594 9.921875 -15.71875 C 7.9375 -13.019531 5.320312 -9.367188 2.144531 -5.953125 C 1.667969 -5.398438 1.269531 -5.082031 1.03125 -4.921875 C 0.476562 -7.699219 3.414062 -18.335938 8.097656 -21.671875 C 9.445312 -22.625 11.273438 -23.335938 13.734375 -20.480469 C 14.289062 -19.84375 15.242188 -19.765625 15.875 -20.320312 C 16.511719 -20.796875 16.589844 -21.828125 16.113281 -22.464844 C 13.097656 -25.957031 10.238281 -25.878906 8.335938 -25.242188 C 2.222656 -23.097656 -1.90625 -11.351562 -2.0625 -5.953125 C -2.144531 -3.730469 -1.507812 -2.300781 -0.238281 -1.824219 C 1.746094 -1.03125 3.730469 -3.175781 4.367188 -3.890625 C 7.066406 -6.828125 9.527344 -10 11.273438 -12.460938 C 12.144531 -3.414062 14.289062 1.109375 17.859375 1.90625 C 18.179688 1.90625 18.496094 1.984375 18.8125 1.984375 C 24.210938 1.984375 30.003906 -7.460938 33.894531 -15.558594 C 34.292969 -16.351562 33.976562 -17.226562 33.179688 -17.621094 Z M 33.179688 -17.621094 "/></g></g></g><g fill="#2b2b2b" fill-opacity="1"><g transform="translate(235.105122, 207.144596)"><g><path d="M 34.132812 -17.859375 C 33.417969 -18.257812 32.464844 -18.019531 32.070312 -17.304688 C 25.320312 -6.507812 13.175781 2.621094 8.652344 1.746094 C 7.9375 1.667969 6.984375 1.269531 6.507812 -0.554688 C 6.746094 -0.875 7.144531 -1.191406 7.542969 -1.507812 C 8.8125 -2.621094 10.636719 -4.207031 12.222656 -6.191406 C 14.765625 -9.527344 15.875 -13.574219 14.921875 -15.875 C 14.445312 -16.828125 13.652344 -17.464844 12.621094 -17.542969 C 10.398438 -17.703125 7.859375 -15.480469 4.84375 -10.796875 C 3.414062 -8.574219 2.0625 -6.113281 0.875 -3.492188 C 3.332031 -14.527344 6.351562 -27.78125 8.652344 -37.707031 C 19.289062 -56.757812 24.609375 -71.046875 22.386719 -74.140625 C 21.910156 -74.777344 21.113281 -75.09375 20.320312 -74.933594 C 16.90625 -74.300781 11.589844 -62.710938 8.015625 -48.023438 C 7.460938 -45.800781 6.667969 -42.546875 5.792969 -38.738281 C 5.714844 -38.65625 5.714844 -38.5 5.714844 -38.339844 C 1.191406 -19.210938 -6.429688 14.605469 -6.507812 17.226562 C -6.507812 18.019531 -5.953125 18.65625 -5.238281 18.734375 C -5.160156 18.8125 -5.082031 18.8125 -4.921875 18.8125 C -4.285156 18.8125 -3.730469 18.335938 -3.492188 17.703125 L -3.175781 16.589844 C -0.554688 8.335938 2.777344 -2.0625 7.382812 -9.128906 C 10.082031 -13.335938 11.667969 -14.289062 12.144531 -14.445312 C 12.382812 -13.574219 11.988281 -10.875 9.765625 -8.015625 C 8.414062 -6.351562 6.746094 -4.84375 5.476562 -3.808594 C 3.890625 -2.382812 3.175781 -1.746094 3.332031 -0.636719 C 4.128906 3.253906 6.351562 4.445312 8.097656 4.761719 C 8.492188 4.84375 8.890625 4.84375 9.289062 4.84375 C 16.90625 4.84375 29.292969 -7.144531 34.609375 -15.71875 C 35.085938 -16.433594 34.847656 -17.382812 34.132812 -17.859375 Z M 19.765625 -70.570312 C 19.210938 -67.3125 16.90625 -60.566406 11.589844 -49.769531 C 14.683594 -61.28125 17.941406 -67.871094 19.765625 -70.570312 Z M 19.765625 -70.570312 "/></g></g></g><g fill="#2b2b2b" fill-opacity="1"><g transform="translate(266.059832, 207.144596)"><g><path d="M 23.179688 -18.019531 C 22.464844 -18.496094 21.589844 -18.257812 21.113281 -17.542969 C 15.796875 -8.96875 6.90625 -0.875 4.207031 -1.984375 C 3.890625 -2.144531 1.347656 -3.652344 4.84375 -17.066406 C 5 -17.941406 4.523438 -18.734375 3.730469 -18.972656 C 2.859375 -19.128906 2.0625 -18.65625 1.824219 -17.859375 C -1.03125 -6.667969 -0.636719 -0.714844 2.9375 0.792969 C 3.492188 1.03125 4.046875 1.109375 4.605469 1.109375 C 10.558594 1.109375 19.6875 -9.527344 23.734375 -15.957031 C 24.132812 -16.667969 23.894531 -17.621094 23.179688 -18.019531 Z M 4.445312 -24.449219 C 8.492188 -24.210938 8.414062 -29.292969 5.160156 -28.179688 C 3.492188 -27.703125 1.347656 -24.609375 4.445312 -24.449219 Z M 4.445312 -24.449219 "/></g></g></g><g fill="#2b2b2b" fill-opacity="1"><g transform="translate(144.293316, 240.680639)"><g><path d="M 4.015625 0.15625 C 3.210938 0.15625 2.546875 -0.0195312 2.015625 -0.375 C 1.484375 -0.726562 1.085938 -1.179688 0.828125 -1.734375 C 0.578125 -2.285156 0.453125 -2.875 0.453125 -3.5 C 0.453125 -4.09375 0.582031 -4.664062 0.84375 -5.21875 C 1.113281 -5.78125 1.507812 -6.242188 2.03125 -6.609375 C 2.550781 -6.972656 3.1875 -7.15625 3.9375 -7.15625 C 4.707031 -7.15625 5.359375 -6.972656 5.890625 -6.609375 C 6.429688 -6.242188 6.832031 -5.78125 7.09375 -5.21875 C 7.363281 -4.664062 7.5 -4.09375 7.5 -3.5 C 7.5 -2.914062 7.363281 -2.34375 7.09375 -1.78125 C 6.832031 -1.21875 6.441406 -0.753906 5.921875 -0.390625 C 5.398438 -0.0234375 4.765625 0.15625 4.015625 0.15625 Z M 4.046875 -0.25 C 4.554688 -0.25 5 -0.394531 5.375 -0.6875 C 5.75 -0.988281 6.03125 -1.375 6.21875 -1.84375 C 6.40625 -2.3125 6.5 -2.800781 6.5 -3.3125 C 6.5 -3.875 6.394531 -4.421875 6.1875 -4.953125 C 5.976562 -5.484375 5.675781 -5.914062 5.28125 -6.25 C 4.894531 -6.59375 4.4375 -6.765625 3.90625 -6.765625 C 3.382812 -6.765625 2.9375 -6.613281 2.5625 -6.3125 C 2.195312 -6.019531 1.914062 -5.632812 1.71875 -5.15625 C 1.53125 -4.6875 1.4375 -4.195312 1.4375 -3.6875 C 1.4375 -3.15625 1.53125 -2.625 1.71875 -2.09375 C 1.914062 -1.5625 2.210938 -1.117188 2.609375 -0.765625 C 3.003906 -0.421875 3.484375 -0.25 4.046875 -0.25 Z M 4.046875 -0.25 "/></g></g></g><g fill="#2b2b2b" fill-opacity="1"><g transform="translate(157.360207, 240.680639)"><g><path d="M 1.6875 -5.671875 L 1.671875 -5.671875 L 1.703125 -1.390625 C 1.703125 -0.941406 1.695312 -0.613281 1.6875 -0.40625 L 2.40625 -0.4375 L 2.40625 0 L 0.5625 0 L 0.5625 -0.328125 C 0.832031 -0.328125 1.007812 -0.40625 1.09375 -0.5625 C 1.1875 -0.71875 1.234375 -0.90625 1.234375 -1.125 L 1.234375 -6.59375 L 0.5625 -6.5625 L 0.5625 -7 L 1.765625 -7 L 6.015625 -1.296875 L 6.03125 -1.296875 L 6.046875 -5.875 C 6.046875 -6.15625 6.050781 -6.394531 6.0625 -6.59375 L 5.34375 -6.5625 L 5.34375 -7 L 7.1875 -7 L 7.1875 -6.671875 C 6.988281 -6.660156 6.835938 -6.617188 6.734375 -6.546875 C 6.640625 -6.484375 6.578125 -6.390625 6.546875 -6.265625 C 6.523438 -6.148438 6.515625 -5.992188 6.515625 -5.796875 L 6.515625 -5.4375 L 6.5 0.15625 L 6.015625 0.15625 Z M 1.6875 -5.671875 "/></g></g></g><g fill="#2b2b2b" fill-opacity="1"><g transform="translate(170.107225, 240.680639)"><g><path d="M 0.546875 -0.328125 C 0.785156 -0.335938 0.953125 -0.390625 1.046875 -0.484375 C 1.148438 -0.585938 1.207031 -0.707031 1.21875 -0.84375 C 1.226562 -0.976562 1.234375 -1.21875 1.234375 -1.5625 L 1.234375 -5.875 C 1.234375 -6.15625 1.242188 -6.394531 1.265625 -6.59375 L 0.546875 -6.5625 L 0.546875 -7 L 2.796875 -7 L 2.796875 -6.671875 C 2.566406 -6.660156 2.398438 -6.601562 2.296875 -6.5 C 2.203125 -6.40625 2.144531 -6.289062 2.125 -6.15625 C 2.113281 -6.019531 2.109375 -5.78125 2.109375 -5.4375 L 2.109375 -1.15625 C 2.109375 -0.800781 2.097656 -0.539062 2.078125 -0.375 L 3.953125 -0.40625 C 4.378906 -0.40625 4.695312 -0.535156 4.90625 -0.796875 C 5.125 -1.066406 5.234375 -1.488281 5.234375 -2.0625 L 5.5625 -2.0625 L 5.515625 0 L 0.546875 0 Z M 0.546875 -0.328125 "/></g></g></g><g fill="#2b2b2b" fill-opacity="1"><g transform="translate(181.014972, 240.680639)"><g><path d="M 0.546875 -0.328125 C 0.785156 -0.335938 0.953125 -0.390625 1.046875 -0.484375 C 1.148438 -0.585938 1.207031 -0.707031 1.21875 -0.84375 C 1.226562 -0.976562 1.234375 -1.21875 1.234375 -1.5625 L 1.234375 -5.875 C 1.234375 -6.15625 1.242188 -6.394531 1.265625 -6.59375 L 0.546875 -6.5625 L 0.546875 -7 L 2.796875 -7 L 2.796875 -6.671875 C 2.566406 -6.660156 2.398438 -6.601562 2.296875 -6.5 C 2.203125 -6.40625 2.144531 -6.289062 2.125 -6.15625 C 2.113281 -6.019531 2.109375 -5.78125 2.109375 -5.4375 L 2.109375 -1.1875 C 2.109375 -0.832031 2.097656 -0.570312 2.078125 -0.40625 L 2.796875 -0.4375 L 2.796875 0 L 0.546875 0 Z M 0.546875 -0.328125 "/></g></g></g><g fill="#2b2b2b" fill-opacity="1"><g transform="translate(189.493676, 240.680639)"><g><path d="M 1.6875 -5.671875 L 1.671875 -5.671875 L 1.703125 -1.390625 C 1.703125 -0.941406 1.695312 -0.613281 1.6875 -0.40625 L 2.40625 -0.4375 L 2.40625 0 L 0.5625 0 L 0.5625 -0.328125 C 0.832031 -0.328125 1.007812 -0.40625 1.09375 -0.5625 C 1.1875 -0.71875 1.234375 -0.90625 1.234375 -1.125 L 1.234375 -6.59375 L 0.5625 -6.5625 L 0.5625 -7 L 1.765625 -7 L 6.015625 -1.296875 L 6.03125 -1.296875 L 6.046875 -5.875 C 6.046875 -6.15625 6.050781 -6.394531 6.0625 -6.59375 L 5.34375 -6.5625 L 5.34375 -7 L 7.1875 -7 L 7.1875 -6.671875 C 6.988281 -6.660156 6.835938 -6.617188 6.734375 -6.546875 C 6.640625 -6.484375 6.578125 -6.390625 6.546875 -6.265625 C 6.523438 -6.148438 6.515625 -5.992188 6.515625 -5.796875 L 6.515625 -5.4375 L 6.5 0.15625 L 6.015625 0.15625 Z M 1.6875 -5.671875 "/></g></g></g><g fill="#2b2b2b" fill-opacity="1"><g transform="translate(202.240693, 240.680639)"><g><path d="M 0.546875 -0.328125 C 0.785156 -0.335938 0.953125 -0.390625 1.046875 -0.484375 C 1.148438 -0.585938 1.207031 -0.707031 1.21875 -0.84375 C 1.226562 -0.976562 1.234375 -1.21875 1.234375 -1.5625 L 1.234375 -5.875 C 1.234375 -6.15625 1.242188 -6.394531 1.265625 -6.59375 L 0.546875 -6.5625 L 0.546875 -7 L 5.359375 -7 L 5.40625 -5.25 L 5.078125 -5.25 C 5.078125 -5.789062 4.957031 -6.160156 4.71875 -6.359375 C 4.488281 -6.566406 4.160156 -6.664062 3.734375 -6.65625 L 2.875 -6.625 C 2.632812 -6.625 2.457031 -6.582031 2.34375 -6.5 C 2.238281 -6.414062 2.171875 -6.296875 2.140625 -6.140625 C 2.117188 -5.992188 2.109375 -5.757812 2.109375 -5.4375 L 2.109375 -3.84375 L 3.984375 -3.828125 L 3.921875 -4.6875 L 4.359375 -4.6875 L 4.359375 -2.59375 L 4.03125 -2.59375 C 4.03125 -2.832031 4 -3.015625 3.9375 -3.140625 C 3.875 -3.273438 3.78125 -3.363281 3.65625 -3.40625 C 3.539062 -3.457031 3.375 -3.484375 3.15625 -3.484375 L 2.84375 -3.46875 L 2.109375 -3.4375 L 2.109375 -1.15625 C 2.109375 -0.800781 2.097656 -0.539062 2.078125 -0.375 L 3.984375 -0.40625 C 4.453125 -0.40625 4.8125 -0.519531 5.0625 -0.75 C 5.3125 -0.976562 5.4375 -1.378906 5.4375 -1.953125 L 5.765625 -1.953125 L 5.703125 0 L 0.546875 0 Z M 0.546875 -0.328125 "/></g></g></g><g fill="#2b2b2b" fill-opacity="1"><g transform="translate(213.588271, 240.680639)"><g/></g></g><g fill="#2b2b2b" fill-opacity="1"><g transform="translate(221.347256, 240.680639)"><g><path d="M 2.078125 -0.328125 C 2.367188 -0.335938 2.554688 -0.414062 2.640625 -0.5625 C 2.722656 -0.71875 2.765625 -0.945312 2.765625 -1.25 L 2.765625 -6.625 L 1.734375 -6.625 C 1.328125 -6.625 1.035156 -6.484375 0.859375 -6.203125 C 0.679688 -5.929688 0.59375 -5.492188 0.59375 -4.890625 L 0.21875 -4.890625 L 0.28125 -7 L 6.109375 -7 L 6.171875 -4.890625 L 5.796875 -4.890625 C 5.785156 -5.304688 5.738281 -5.640625 5.65625 -5.890625 C 5.582031 -6.140625 5.453125 -6.328125 5.265625 -6.453125 C 5.085938 -6.578125 4.828125 -6.640625 4.484375 -6.640625 L 3.640625 -6.640625 L 3.625 -1.1875 C 3.625 -0.832031 3.613281 -0.570312 3.59375 -0.40625 L 4.4375 -0.4375 L 4.4375 0 L 2.078125 0 Z M 2.078125 -0.328125 "/></g></g></g><g fill="#2b2b2b" fill-opacity="1"><g transform="translate(232.874757, 240.680639)"><g><path d="M 0.546875 -0.328125 C 0.785156 -0.335938 0.953125 -0.390625 1.046875 -0.484375 C 1.148438 -0.585938 1.207031 -0.707031 1.21875 -0.84375 C 1.226562 -0.976562 1.234375 -1.21875 1.234375 -1.5625 L 1.234375 -5.875 C 1.234375 -6.15625 1.242188 -6.394531 1.265625 -6.59375 L 0.546875 -6.5625 L 0.546875 -7 L 2.796875 -7 L 2.796875 -6.671875 C 2.566406 -6.660156 2.398438 -6.601562 2.296875 -6.5 C 2.203125 -6.40625 2.144531 -6.289062 2.125 -6.15625 C 2.113281 -6.019531 2.109375 -5.78125 2.109375 -5.4375 L 2.109375 -3.78125 L 5.6875 -3.78125 L 5.6875 -5.875 C 5.6875 -6.15625 5.695312 -6.394531 5.71875 -6.59375 L 5 -6.5625 L 5 -7 L 7.25 -7 L 7.25 -6.671875 C 7.019531 -6.660156 6.851562 -6.601562 6.75 -6.5 C 6.644531 -6.40625 6.585938 -6.289062 6.578125 -6.15625 C 6.566406 -6.019531 6.5625 -5.78125 6.5625 -5.4375 L 6.5625 -1.1875 C 6.5625 -0.832031 6.550781 -0.570312 6.53125 -0.40625 L 7.25 -0.4375 L 7.25 0 L 5 0 L 5 -0.328125 C 5.226562 -0.335938 5.394531 -0.390625 5.5 -0.484375 C 5.601562 -0.585938 5.660156 -0.707031 5.671875 -0.84375 C 5.679688 -0.976562 5.6875 -1.21875 5.6875 -1.5625 L 5.6875 -3.375 L 2.109375 -3.34375 L 2.109375 -1.1875 C 2.109375 -0.832031 2.097656 -0.570312 2.078125 -0.40625 L 2.796875 -0.4375 L 2.796875 0 L 0.546875 0 Z M 0.546875 -0.328125 "/></g></g></g><g fill="#2b2b2b" fill-opacity="1"><g transform="translate(245.801716, 240.680639)"><g><path d="M 0.546875 -0.328125 C 0.785156 -0.335938 0.953125 -0.390625 1.046875 -0.484375 C 1.148438 -0.585938 1.207031 -0.707031 1.21875 -0.84375 C 1.226562 -0.976562 1.234375 -1.21875 1.234375 -1.5625 L 1.234375 -5.875 C 1.234375 -6.15625 1.242188 -6.394531 1.265625 -6.59375 L 0.546875 -6.5625 L 0.546875 -7 C 1.242188 -7.007812 1.769531 -7.015625 2.125 -7.015625 C 2.4375 -7.015625 2.675781 -7.015625 2.84375 -7.015625 C 3.78125 -6.992188 4.46875 -6.832031 4.90625 -6.53125 C 5.34375 -6.226562 5.5625 -5.789062 5.5625 -5.21875 C 5.5625 -4.757812 5.421875 -4.347656 5.140625 -3.984375 C 4.867188 -3.617188 4.382812 -3.363281 3.6875 -3.21875 C 3.800781 -3.132812 3.90625 -3.03125 4 -2.90625 C 4.09375 -2.789062 4.21875 -2.601562 4.375 -2.34375 L 5.0625 -1.28125 C 5.207031 -1.050781 5.328125 -0.875 5.421875 -0.75 C 5.515625 -0.625 5.628906 -0.519531 5.765625 -0.4375 C 5.910156 -0.363281 6.082031 -0.328125 6.28125 -0.328125 L 6.28125 0 L 5.015625 0 C 4.835938 -0.15625 4.6875 -0.3125 4.5625 -0.46875 C 4.4375 -0.632812 4.289062 -0.847656 4.125 -1.109375 L 3.453125 -2.1875 L 3.328125 -2.390625 C 3.222656 -2.566406 3.128906 -2.710938 3.046875 -2.828125 C 2.972656 -2.941406 2.890625 -3.039062 2.796875 -3.125 C 2.734375 -3.125 2.640625 -3.125 2.515625 -3.125 C 2.328125 -3.125 2.191406 -3.125 2.109375 -3.125 L 2.109375 -1.1875 C 2.109375 -0.832031 2.097656 -0.570312 2.078125 -0.40625 L 2.796875 -0.4375 L 2.796875 0 L 0.546875 0 Z M 2.546875 -3.5 C 3.910156 -3.5 4.59375 -4.035156 4.59375 -5.109375 C 4.59375 -5.617188 4.441406 -6 4.140625 -6.25 C 3.847656 -6.5 3.398438 -6.625 2.796875 -6.625 C 2.566406 -6.625 2.398438 -6.578125 2.296875 -6.484375 C 2.203125 -6.390625 2.144531 -6.273438 2.125 -6.140625 C 2.113281 -6.015625 2.109375 -5.78125 2.109375 -5.4375 L 2.109375 -3.515625 C 2.304688 -3.503906 2.453125 -3.5 2.546875 -3.5 Z M 2.546875 -3.5 "/></g></g></g><g fill="#2b2b2b" fill-opacity="1"><g transform="translate(257.209255, 240.680639)"><g><path d="M 0.546875 -0.328125 C 0.785156 -0.335938 0.953125 -0.390625 1.046875 -0.484375 C 1.148438 -0.585938 1.207031 -0.707031 1.21875 -0.84375 C 1.226562 -0.976562 1.234375 -1.21875 1.234375 -1.5625 L 1.234375 -5.875 C 1.234375 -6.15625 1.242188 -6.394531 1.265625 -6.59375 L 0.546875 -6.5625 L 0.546875 -7 L 2.796875 -7 L 2.796875 -6.671875 C 2.566406 -6.660156 2.398438 -6.601562 2.296875 -6.5 C 2.203125 -6.40625 2.144531 -6.289062 2.125 -6.15625 C 2.113281 -6.019531 2.109375 -5.78125 2.109375 -5.4375 L 2.109375 -1.1875 C 2.109375 -0.832031 2.097656 -0.570312 2.078125 -0.40625 L 2.796875 -0.4375 L 2.796875 0 L 0.546875 0 Z M 0.546875 -0.328125 "/></g></g></g><g fill="#2b2b2b" fill-opacity="1"><g transform="translate(265.687953, 240.680639)"><g><path d="M 0.546875 -0.328125 C 0.785156 -0.335938 0.953125 -0.390625 1.046875 -0.484375 C 1.148438 -0.585938 1.207031 -0.707031 1.21875 -0.84375 C 1.226562 -0.976562 1.234375 -1.21875 1.234375 -1.5625 L 1.234375 -5.875 C 1.234375 -6.15625 1.242188 -6.394531 1.265625 -6.59375 L 0.546875 -6.5625 L 0.546875 -7 L 5.1875 -7 L 5.234375 -5.25 L 4.90625 -5.25 C 4.90625 -5.789062 4.78125 -6.160156 4.53125 -6.359375 C 4.289062 -6.566406 3.957031 -6.664062 3.53125 -6.65625 L 2.796875 -6.625 C 2.566406 -6.625 2.398438 -6.570312 2.296875 -6.46875 C 2.203125 -6.363281 2.144531 -6.238281 2.125 -6.09375 C 2.113281 -5.957031 2.109375 -5.726562 2.109375 -5.40625 L 2.109375 -3.6875 L 3.84375 -3.671875 L 3.78125 -4.546875 L 4.21875 -4.546875 L 4.21875 -2.4375 L 3.90625 -2.4375 C 3.90625 -2.6875 3.875 -2.875 3.8125 -3 C 3.757812 -3.125 3.671875 -3.207031 3.546875 -3.25 C 3.429688 -3.300781 3.265625 -3.328125 3.046875 -3.328125 C 2.898438 -3.328125 2.785156 -3.320312 2.703125 -3.3125 L 2.109375 -3.296875 L 2.109375 -1.1875 C 2.109375 -0.832031 2.097656 -0.570312 2.078125 -0.40625 L 3.09375 -0.4375 L 3.09375 0 L 0.546875 0 Z M 0.546875 -0.328125 "/></g></g></g><g fill="#2b2b2b" fill-opacity="1"><g transform="translate(276.295825, 240.680639)"><g><path d="M 2.078125 -0.328125 C 2.367188 -0.335938 2.554688 -0.414062 2.640625 -0.5625 C 2.722656 -0.71875 2.765625 -0.945312 2.765625 -1.25 L 2.765625 -6.625 L 1.734375 -6.625 C 1.328125 -6.625 1.035156 -6.484375 0.859375 -6.203125 C 0.679688 -5.929688 0.59375 -5.492188 0.59375 -4.890625 L 0.21875 -4.890625 L 0.28125 -7 L 6.109375 -7 L 6.171875 -4.890625 L 5.796875 -4.890625 C 5.785156 -5.304688 5.738281 -5.640625 5.65625 -5.890625 C 5.582031 -6.140625 5.453125 -6.328125 5.265625 -6.453125 C 5.085938 -6.578125 4.828125 -6.640625 4.484375 -6.640625 L 3.640625 -6.640625 L 3.625 -1.1875 C 3.625 -0.832031 3.613281 -0.570312 3.59375 -0.40625 L 4.4375 -0.4375 L 4.4375 0 L 2.078125 0 Z M 2.078125 -0.328125 "/></g></g></g><g fill="#2b2b2b" fill-opacity="1"><g transform="translate(287.82332, 240.680639)"><g><path d="M 0.546875 -0.328125 C 0.785156 -0.335938 0.953125 -0.390625 1.046875 -0.484375 C 1.148438 -0.585938 1.207031 -0.707031 1.21875 -0.84375 C 1.226562 -0.976562 1.234375 -1.21875 1.234375 -1.5625 L 1.234375 -5.875 C 1.234375 -6.15625 1.242188 -6.394531 1.265625 -6.59375 L 0.546875 -6.5625 L 0.546875 -7 L 2.796875 -7 L 2.796875 -6.671875 C 2.566406 -6.660156 2.398438 -6.601562 2.296875 -6.5 C 2.203125 -6.40625 2.144531 -6.289062 2.125 -6.15625 C 2.113281 -6.019531 2.109375 -5.78125 2.109375 -5.4375 L 2.109375 -1.1875 C 2.109375 -0.832031 2.097656 -0.570312 2.078125 -0.40625 L 2.796875 -0.4375 L 2.796875 0 L 0.546875 0 Z M 0.546875 -0.328125 "/></g></g></g><g fill="#2b2b2b" fill-opacity="1"><g transform="translate(296.302018, 240.680639)"><g><path d="M 1.6875 -5.671875 L 1.671875 -5.671875 L 1.703125 -1.390625 C 1.703125 -0.941406 1.695312 -0.613281 1.6875 -0.40625 L 2.40625 -0.4375 L 2.40625 0 L 0.5625 0 L 0.5625 -0.328125 C 0.832031 -0.328125 1.007812 -0.40625 1.09375 -0.5625 C 1.1875 -0.71875 1.234375 -0.90625 1.234375 -1.125 L 1.234375 -6.59375 L 0.5625 -6.5625 L 0.5625 -7 L 1.765625 -7 L 6.015625 -1.296875 L 6.03125 -1.296875 L 6.046875 -5.875 C 6.046875 -6.15625 6.050781 -6.394531 6.0625 -6.59375 L 5.34375 -6.5625 L 5.34375 -7 L 7.1875 -7 L 7.1875 -6.671875 C 6.988281 -6.660156 6.835938 -6.617188 6.734375 -6.546875 C 6.640625 -6.484375 6.578125 -6.390625 6.546875 -6.265625 C 6.523438 -6.148438 6.515625 -5.992188 6.515625 -5.796875 L 6.515625 -5.4375 L 6.5 0.15625 L 6.015625 0.15625 Z M 1.6875 -5.671875 "/></g></g></g><g fill="#2b2b2b" fill-opacity="1"><g transform="translate(309.049042, 240.680639)"><g><path d="M 3.875 0.15625 C 3.207031 0.15625 2.613281 0.015625 2.09375 -0.265625 C 1.582031 -0.546875 1.179688 -0.945312 0.890625 -1.46875 C 0.609375 -2 0.46875 -2.625 0.46875 -3.34375 C 0.46875 -4 0.597656 -4.613281 0.859375 -5.1875 C 1.128906 -5.769531 1.523438 -6.242188 2.046875 -6.609375 C 2.578125 -6.972656 3.210938 -7.15625 3.953125 -7.15625 C 4.304688 -7.15625 4.664062 -7.109375 5.03125 -7.015625 C 5.40625 -6.921875 5.734375 -6.785156 6.015625 -6.609375 L 5.984375 -7.09375 L 6.53125 -7.09375 L 6.53125 -4.796875 L 6.171875 -4.796875 C 6.117188 -5.410156 5.894531 -5.890625 5.5 -6.234375 C 5.101562 -6.585938 4.609375 -6.765625 4.015625 -6.765625 C 3.546875 -6.765625 3.113281 -6.625 2.71875 -6.34375 C 2.332031 -6.070312 2.023438 -5.691406 1.796875 -5.203125 C 1.566406 -4.722656 1.453125 -4.179688 1.453125 -3.578125 C 1.453125 -2.953125 1.5625 -2.390625 1.78125 -1.890625 C 2.007812 -1.398438 2.328125 -1.015625 2.734375 -0.734375 C 3.140625 -0.453125 3.601562 -0.3125 4.125 -0.3125 C 4.414062 -0.3125 4.710938 -0.351562 5.015625 -0.4375 C 5.316406 -0.519531 5.59375 -0.644531 5.84375 -0.8125 L 5.84375 -3.015625 L 5.140625 -2.96875 L 5.140625 -3.40625 L 7.40625 -3.40625 L 7.40625 -3.078125 C 7.082031 -3.078125 6.878906 -2.953125 6.796875 -2.703125 C 6.722656 -2.460938 6.6875 -2.191406 6.6875 -1.890625 L 6.6875 -0.359375 L 6.40625 -0.359375 C 6.125 -0.359375 5.765625 -0.269531 5.328125 -0.09375 C 5.128906 -0.0195312 4.890625 0.0351562 4.609375 0.078125 C 4.335938 0.128906 4.09375 0.15625 3.875 0.15625 Z M 3.875 0.15625 "/></g></g></g></svg>